<?xml version="1.0" standalone="no"?>
<!DOCTYPE svg PUBLIC "-//W3C//DTD SVG 20010904//EN"
 "http://www.w3.org/TR/2001/REC-SVG-20010904/DTD/svg10.dtd">
<svg version="1.0" xmlns="http://www.w3.org/2000/svg"
 width="256.000000pt" height="256.000000pt" viewBox="0 0 256.000000 256.000000"
 preserveAspectRatio="xMidYMid meet">
<metadata>
Created by potrace 1.14, written by Peter Selinger 2001-2017
</metadata>
<g transform="translate(0.000000,256.000000) scale(0.100000,-0.100000)"
fill="#000000" stroke="none">
<path d="M33 2550 c-12 -5 -25 -19 -28 -32 -3 -13 -4 -578 -3 -1256 3 -1211 3
-1234 23 -1248 16 -12 197 -14 1263 -12 1221 3 1244 3 1258 23 12 16 14 197
12 1263 -3 1218 -3 1244 -22 1258 -17 12 -203 14 -1250 13 -698 0 -1241 -4
-1253 -9z"/>
</g>
</svg>
